<?xml version="1.0"?>
<svg xmlns="http://www.w3.org/2000/svg" xmlns:xlink="http://www.w3.org/1999/xlink" xmlns:svgjs="http://svgjs.com/svgjs" version="1.1" width="512" height="512" x="0" y="0" viewBox="0 0 512 512" style="enable-background:new 0 0 512 512" xml:space="preserve" class=""><g>
<path xmlns="http://www.w3.org/2000/svg" style="" d="M501.461,383.799L320.501,51.401C306.7,28.6,282.7,14.8,256,14.8s-50.7,13.8-64.501,36.601  L10.539,383.799C-3.259,407.501-3.56,435.701,9.941,459.4c13.499,23.699,37.798,37.8,65.099,37.8h361.92  c27.301,0,51.601-14.101,65.099-37.8C515.56,435.701,515.259,407.501,501.461,383.799z" fill="#000000" data-original="#495a79" class=""/>
<path xmlns="http://www.w3.org/2000/svg" style="" d="M502.059,459.4c-13.499,23.699-37.798,37.8-65.099,37.8H256V14.8c26.7,0,50.7,13.801,64.501,36.601  L501.461,383.8C515.259,407.501,515.56,435.701,502.059,459.4z" fill="#000000" data-original="#42516d" class=""/>
<path xmlns="http://www.w3.org/2000/svg" style="" d="M475.661,399.1L294.699,66.699C286.601,52.9,271.901,44.8,256,44.8s-30.601,8.101-38.699,21.899  L36.339,399.1c-8.399,14.101-8.399,31.199-0.298,45.3c8.099,14.399,22.798,22.8,39,22.8h361.92c16.201,0,30.901-8.401,39-22.8  C484.06,430.299,484.06,413.201,475.661,399.1z" fill="#fed34f" data-original="#ffde33" class=""/>
<path xmlns="http://www.w3.org/2000/svg" style="" d="M475.96,444.4c-8.099,14.399-22.798,22.8-39,22.8H256V44.8c15.901,0,30.601,8.101,38.699,21.899  L475.661,399.1C484.06,413.201,484.06,430.299,475.96,444.4z" fill="#f7cd4c" data-original="#ffbc33" class=""/>
<g xmlns="http://www.w3.org/2000/svg">
	<path style="" d="M256,437.2c-16.538,0-30-13.462-30-30s13.462-30,30-30s30,13.462,30,30S272.538,437.2,256,437.2z" fill="#000000" data-original="#495a79" class=""/>
	<path style="" d="M286,317.2c0,16.538-13.462,30-30,30s-30-13.462-30-30v-150c0-16.538,13.462-30,30-30   s30,13.462,30,30V317.2z" fill="#000000" data-original="#495a79" class=""/>
</g>
<g xmlns="http://www.w3.org/2000/svg">
	<path style="" d="M286,407.2c0-16.538-13.462-30-30-30v60C272.538,437.2,286,423.738,286,407.2z" fill="#000000" data-original="#42516d" class=""/>
	<path style="" d="M286,317.2v-150c0-16.538-13.462-30-30-30v210C272.538,347.2,286,333.738,286,317.2z" fill="#000000" data-original="#42516d" class=""/>
</g>
<g xmlns="http://www.w3.org/2000/svg">
</g>
<g xmlns="http://www.w3.org/2000/svg">
</g>
<g xmlns="http://www.w3.org/2000/svg">
</g>
<g xmlns="http://www.w3.org/2000/svg">
</g>
<g xmlns="http://www.w3.org/2000/svg">
</g>
<g xmlns="http://www.w3.org/2000/svg">
</g>
<g xmlns="http://www.w3.org/2000/svg">
</g>
<g xmlns="http://www.w3.org/2000/svg">
</g>
<g xmlns="http://www.w3.org/2000/svg">
</g>
<g xmlns="http://www.w3.org/2000/svg">
</g>
<g xmlns="http://www.w3.org/2000/svg">
</g>
<g xmlns="http://www.w3.org/2000/svg">
</g>
<g xmlns="http://www.w3.org/2000/svg">
</g>
<g xmlns="http://www.w3.org/2000/svg">
</g>
<g xmlns="http://www.w3.org/2000/svg">
</g>
</g></svg>
